<mxfile host="65bd71144e">
    <diagram id="EAWruZUE_qWZ3CnmqtOu" name="Page-1">
        <mxGraphModel dx="717" dy="545" grid="1" gridSize="10" guides="1" tooltips="1" connect="1" arrows="1" fold="1" page="1" pageScale="1" pageWidth="827" pageHeight="1169" background="#ffffff" math="0" shadow="0">
            <root>
                <mxCell id="0"/>
                <mxCell id="1" parent="0"/>
                <mxCell id="13" style="edgeStyle=none;html=1;fontSize=11;comic=0;fontFamily=Arial;" parent="1" source="9" target="10" edge="1">
                    <mxGeometry relative="1" as="geometry"/>
                </mxCell>
                <mxCell id="9" value="&lt;font style=&quot;font-size: 11px;&quot;&gt;config&lt;/font&gt;" style="shape=document;whiteSpace=wrap;html=1;boundedLbl=1;fontSize=11;fillColor=#fff2cc;strokeColor=#d6b656;comic=0;fontFamily=Arial;" parent="1" vertex="1">
                    <mxGeometry x="80" y="68.75" width="70" height="32.5" as="geometry"/>
                </mxCell>
                <mxCell id="130" value="" style="edgeStyle=none;html=1;" parent="1" source="10" target="14" edge="1">
                    <mxGeometry relative="1" as="geometry"/>
                </mxCell>
                <mxCell id="134" style="edgeStyle=orthogonalEdgeStyle;html=1;" parent="1" source="10" target="36" edge="1">
                    <mxGeometry relative="1" as="geometry">
                        <Array as="points">
                            <mxPoint x="190" y="85"/>
                            <mxPoint x="190" y="395"/>
                        </Array>
                    </mxGeometry>
                </mxCell>
                <mxCell id="136" style="edgeStyle=orthogonalEdgeStyle;html=1;" parent="1" source="10" target="38" edge="1">
                    <mxGeometry relative="1" as="geometry">
                        <Array as="points">
                            <mxPoint x="190" y="85"/>
                            <mxPoint x="190" y="451"/>
                        </Array>
                    </mxGeometry>
                </mxCell>
                <mxCell id="138" style="edgeStyle=orthogonalEdgeStyle;html=1;" parent="1" source="10" target="50" edge="1">
                    <mxGeometry relative="1" as="geometry">
                        <Array as="points">
                            <mxPoint x="190" y="85"/>
                            <mxPoint x="190" y="515"/>
                        </Array>
                    </mxGeometry>
                </mxCell>
                <mxCell id="10" value="&lt;font style=&quot;font-size: 11px&quot;&gt;&amp;nbsp;metadata&lt;/font&gt;" style="shape=document;whiteSpace=wrap;html=1;boundedLbl=1;fontSize=11;fillColor=#fff2cc;strokeColor=#d6b656;comic=0;fontFamily=Arial;" parent="1" vertex="1">
                    <mxGeometry x="230" y="68.75" width="70" height="32.5" as="geometry"/>
                </mxCell>
                <mxCell id="62" style="edgeStyle=orthogonalEdgeStyle;html=1;strokeWidth=1;comic=0;fontSize=11;fontFamily=Arial;" parent="1" source="14" target="17" edge="1">
                    <mxGeometry relative="1" as="geometry"/>
                </mxCell>
                <mxCell id="14" value="&lt;font style=&quot;font-size: 11px;&quot;&gt;pair-end reads&lt;/font&gt;" style="shape=parallelogram;perimeter=parallelogramPerimeter;whiteSpace=wrap;html=1;fixedSize=1;fontSize=11;fillColor=#fff2cc;strokeColor=#d6b656;comic=0;fontFamily=Arial;" parent="1" vertex="1">
                    <mxGeometry x="370" y="68.75" width="110" height="30" as="geometry"/>
                </mxCell>
                <mxCell id="30" style="edgeStyle=none;html=1;comic=0;fontSize=11;fontFamily=Arial;" parent="1" source="17" target="19" edge="1">
                    <mxGeometry relative="1" as="geometry"/>
                </mxCell>
                <mxCell id="17" value="&lt;font style=&quot;font-size: 11px&quot;&gt;reads QC&lt;br style=&quot;font-size: 11px&quot;&gt;&lt;/font&gt;" style="rounded=1;whiteSpace=wrap;html=1;fontSize=11;fillColor=#dae8fc;strokeColor=#6c8ebf;comic=0;fontFamily=Arial;" parent="1" vertex="1">
                    <mxGeometry x="370" y="140" width="110" height="30" as="geometry"/>
                </mxCell>
                <mxCell id="32" value="" style="edgeStyle=none;html=1;comic=0;fontSize=11;fontFamily=Arial;" parent="1" source="19" target="21" edge="1">
                    <mxGeometry relative="1" as="geometry"/>
                </mxCell>
                <mxCell id="19" value="&lt;font style=&quot;font-size: 11px;&quot;&gt;reads classification&lt;br style=&quot;font-size: 11px;&quot;&gt;&lt;/font&gt;" style="rounded=1;whiteSpace=wrap;html=1;fontSize=11;fillColor=#e1d5e7;strokeColor=#9673a6;comic=0;fontFamily=Arial;" parent="1" vertex="1">
                    <mxGeometry x="210" y="140" width="110" height="30" as="geometry"/>
                </mxCell>
                <mxCell id="33" value="" style="edgeStyle=none;html=1;comic=0;fontSize=11;fontFamily=Arial;" parent="1" source="21" target="23" edge="1">
                    <mxGeometry relative="1" as="geometry"/>
                </mxCell>
                <mxCell id="21" value="&lt;font style=&quot;font-size: 11px;&quot;&gt;reads trimming and merging&amp;nbsp;&lt;br style=&quot;font-size: 11px;&quot;&gt;&lt;/font&gt;" style="rounded=1;whiteSpace=wrap;html=1;fontSize=11;glass=0;shadow=0;sketch=0;fillColor=#d5e8d4;strokeColor=#82b366;comic=0;fontFamily=Arial;" parent="1" vertex="1">
                    <mxGeometry x="210" y="200" width="110" height="30" as="geometry"/>
                </mxCell>
                <mxCell id="124" value="" style="edgeStyle=none;html=1;" parent="1" source="23" target="123" edge="1">
                    <mxGeometry relative="1" as="geometry"/>
                </mxCell>
                <mxCell id="23" value="&lt;font style=&quot;font-size: 11px;&quot;&gt;reads mapping&lt;br style=&quot;font-size: 11px;&quot;&gt;&lt;/font&gt;" style="rounded=1;whiteSpace=wrap;html=1;fontSize=11;fillColor=#d5e8d4;strokeColor=#82b366;comic=0;fontFamily=Arial;" parent="1" vertex="1">
                    <mxGeometry x="370" y="200" width="110" height="30" as="geometry"/>
                </mxCell>
                <mxCell id="35" value="" style="edgeStyle=none;html=1;comic=0;fontSize=11;fontFamily=Arial;" parent="1" source="25" target="27" edge="1">
                    <mxGeometry relative="1" as="geometry"/>
                </mxCell>
                <mxCell id="25" value="&lt;font style=&quot;font-size: 11px;&quot;&gt;variants calling&lt;br style=&quot;font-size: 11px;&quot;&gt;&lt;/font&gt;" style="rounded=1;whiteSpace=wrap;html=1;fontSize=11;fillColor=#d5e8d4;strokeColor=#82b366;comic=0;fontFamily=Arial;" parent="1" vertex="1">
                    <mxGeometry x="210" y="260" width="110" height="30" as="geometry"/>
                </mxCell>
                <mxCell id="37" value="" style="edgeStyle=none;html=1;comic=0;fontSize=11;fontFamily=Arial;" parent="1" source="27" target="36" edge="1">
                    <mxGeometry relative="1" as="geometry"/>
                </mxCell>
                <mxCell id="27" value="&lt;font style=&quot;font-size: 11px;&quot;&gt;pairwise SNP-distance calculation&lt;br style=&quot;font-size: 11px;&quot;&gt;&lt;/font&gt;" style="rounded=1;whiteSpace=wrap;html=1;fontSize=11;fillColor=#f8cecc;strokeColor=#b85450;comic=0;fontFamily=Arial;" parent="1" vertex="1">
                    <mxGeometry x="210" y="320" width="110" height="30" as="geometry"/>
                </mxCell>
                <mxCell id="39" value="" style="edgeStyle=none;html=1;comic=0;fontSize=11;fontFamily=Arial;" parent="1" source="36" target="38" edge="1">
                    <mxGeometry relative="1" as="geometry"/>
                </mxCell>
                <mxCell id="36" value="&lt;font style=&quot;font-size: 11px;&quot;&gt;transmission clustering&lt;br style=&quot;font-size: 11px;&quot;&gt;&lt;/font&gt;" style="rounded=1;whiteSpace=wrap;html=1;fontSize=11;fillColor=#f8cecc;strokeColor=#b85450;comic=0;fontFamily=Arial;" parent="1" vertex="1">
                    <mxGeometry x="210" y="380" width="110" height="30" as="geometry"/>
                </mxCell>
                <mxCell id="54" value="" style="edgeStyle=orthogonalEdgeStyle;html=1;comic=0;fontSize=11;fontFamily=Arial;" parent="1" source="38" target="50" edge="1">
                    <mxGeometry relative="1" as="geometry"/>
                </mxCell>
                <mxCell id="38" value="&lt;font style=&quot;font-size: 11px;&quot;&gt;transmission network building&lt;br style=&quot;font-size: 11px;&quot;&gt;&lt;/font&gt;" style="rounded=1;whiteSpace=wrap;html=1;fontSize=11;fillColor=#f8cecc;strokeColor=#b85450;comic=0;fontFamily=Arial;" parent="1" vertex="1">
                    <mxGeometry x="210" y="436" width="110" height="30" as="geometry"/>
                </mxCell>
                <mxCell id="117" style="edgeStyle=orthogonalEdgeStyle;html=1;exitX=0.5;exitY=1;exitDx=0;exitDy=0;fontSize=11;fontColor=#000000;fontFamily=Arial;" parent="1" source="50" target="116" edge="1">
                    <mxGeometry relative="1" as="geometry"/>
                </mxCell>
                <mxCell id="50" value="&lt;font style=&quot;font-size: 11px;&quot;&gt;risk factor inference&lt;br style=&quot;font-size: 11px;&quot;&gt;&lt;/font&gt;" style="rounded=1;whiteSpace=wrap;html=1;fontSize=11;fillColor=#ffe6cc;strokeColor=#d79b00;comic=0;fontFamily=Arial;" parent="1" vertex="1">
                    <mxGeometry x="210" y="500" width="110" height="30" as="geometry"/>
                </mxCell>
                <mxCell id="64" value="&lt;font style=&quot;font-size: 11px;&quot;&gt;1&lt;br style=&quot;font-size: 11px;&quot;&gt;&lt;/font&gt;" style="rounded=1;whiteSpace=wrap;html=1;fontSize=11;fillColor=#dae8fc;strokeColor=#6c8ebf;comic=0;fontFamily=Arial;" parent="1" vertex="1">
                    <mxGeometry x="360" y="345" width="20" height="20" as="geometry"/>
                </mxCell>
                <mxCell id="66" value="&lt;font style=&quot;font-size: 11px;&quot;&gt;2&lt;br style=&quot;font-size: 11px;&quot;&gt;&lt;/font&gt;" style="rounded=1;whiteSpace=wrap;html=1;fontSize=11;fillColor=#e1d5e7;strokeColor=#9673a6;comic=0;fontFamily=Arial;" parent="1" vertex="1">
                    <mxGeometry x="360" y="375" width="20" height="20" as="geometry"/>
                </mxCell>
                <mxCell id="67" value="quality control" style="text;html=1;strokeColor=none;fillColor=none;align=left;verticalAlign=middle;whiteSpace=wrap;rounded=0;fontSize=11;fontFamily=Arial;" parent="1" vertex="1">
                    <mxGeometry x="387" y="345" width="140" height="20" as="geometry"/>
                </mxCell>
                <mxCell id="68" value="&lt;font style=&quot;font-size: 11px;&quot;&gt;3&lt;br style=&quot;font-size: 11px;&quot;&gt;&lt;/font&gt;" style="rounded=1;whiteSpace=wrap;html=1;fontSize=11;fillColor=#d5e8d4;strokeColor=#82b366;comic=0;fontFamily=Arial;" parent="1" vertex="1">
                    <mxGeometry x="360" y="405" width="20" height="20" as="geometry"/>
                </mxCell>
                <mxCell id="69" value="MTBC filtering" style="text;html=1;strokeColor=none;fillColor=none;align=left;verticalAlign=middle;whiteSpace=wrap;rounded=0;fontSize=11;fontFamily=Arial;" parent="1" vertex="1">
                    <mxGeometry x="387" y="375" width="140" height="20" as="geometry"/>
                </mxCell>
                <mxCell id="71" value="&lt;font style=&quot;font-size: 11px;&quot;&gt;4&lt;br style=&quot;font-size: 11px;&quot;&gt;&lt;/font&gt;" style="rounded=1;whiteSpace=wrap;html=1;fontSize=11;fillColor=#f8cecc;strokeColor=#b85450;comic=0;fontFamily=Arial;" parent="1" vertex="1">
                    <mxGeometry x="360" y="435" width="20" height="20" as="geometry"/>
                </mxCell>
                <mxCell id="72" value="transmission detection" style="text;html=1;strokeColor=none;fillColor=none;align=left;verticalAlign=middle;whiteSpace=wrap;rounded=0;fontSize=11;fontFamily=Arial;" parent="1" vertex="1">
                    <mxGeometry x="387" y="435" width="140" height="20" as="geometry"/>
                </mxCell>
                <mxCell id="73" value="&lt;font style=&quot;font-size: 11px;&quot;&gt;5&lt;br style=&quot;font-size: 11px;&quot;&gt;&lt;/font&gt;" style="rounded=1;whiteSpace=wrap;html=1;fontSize=11;fillColor=#ffe6cc;strokeColor=#d79b00;comic=0;fontFamily=Arial;" parent="1" vertex="1">
                    <mxGeometry x="360" y="465" width="20" height="20" as="geometry"/>
                </mxCell>
                <mxCell id="74" value="risk factor inference" style="text;html=1;strokeColor=none;fillColor=none;align=left;verticalAlign=middle;whiteSpace=wrap;rounded=0;fontSize=11;fontFamily=Arial;" parent="1" vertex="1">
                    <mxGeometry x="387" y="465" width="140" height="20" as="geometry"/>
                </mxCell>
                <mxCell id="75" value="sequence alignemnt &lt;br&gt;&amp;amp; variant calling" style="text;html=1;strokeColor=none;fillColor=none;align=left;verticalAlign=middle;whiteSpace=wrap;rounded=0;fontSize=11;fontFamily=Arial;" parent="1" vertex="1">
                    <mxGeometry x="387" y="405" width="140" height="20" as="geometry"/>
                </mxCell>
                <mxCell id="83" value="" style="endArrow=none;dashed=1;html=1;edgeStyle=orthogonalEdgeStyle;fontSize=11;fontFamily=Arial;" parent="1" edge="1">
                    <mxGeometry width="50" height="50" relative="1" as="geometry">
                        <mxPoint x="10" y="119" as="sourcePoint"/>
                        <mxPoint x="510" y="119" as="targetPoint"/>
                    </mxGeometry>
                </mxCell>
                <mxCell id="84" value="" style="endArrow=none;dashed=1;html=1;fontSize=11;fontFamily=Arial;" parent="1" edge="1">
                    <mxGeometry width="50" height="50" relative="1" as="geometry">
                        <mxPoint x="10" y="50" as="sourcePoint"/>
                        <mxPoint x="510" y="50" as="targetPoint"/>
                    </mxGeometry>
                </mxCell>
                <mxCell id="85" value="" style="endArrow=none;dashed=1;html=1;fontSize=11;fontFamily=Arial;" parent="1" edge="1">
                    <mxGeometry width="50" height="50" relative="1" as="geometry">
                        <mxPoint x="10" y="540" as="sourcePoint"/>
                        <mxPoint x="510" y="540" as="targetPoint"/>
                    </mxGeometry>
                </mxCell>
                <mxCell id="89" value="&lt;b&gt;&lt;font style=&quot;font-size: 12px&quot;&gt;Input&lt;/font&gt;&lt;/b&gt;" style="text;html=1;strokeColor=none;fillColor=none;align=center;verticalAlign=middle;whiteSpace=wrap;rounded=0;flipV=0;rotation=0;fontSize=11;fontFamily=Arial;" parent="1" vertex="1">
                    <mxGeometry x="20" y="73.75" width="40" height="20" as="geometry"/>
                </mxCell>
                <mxCell id="90" value="&lt;b&gt;&lt;font style=&quot;font-size: 12px&quot;&gt;Workflow&lt;/font&gt;&lt;/b&gt;" style="text;html=1;strokeColor=none;fillColor=none;align=center;verticalAlign=middle;whiteSpace=wrap;rounded=0;flipV=0;rotation=0;fontSize=11;fontFamily=Arial;" parent="1" vertex="1">
                    <mxGeometry x="60" y="130" width="90" height="20" as="geometry"/>
                </mxCell>
                <mxCell id="91" value="Software" style="swimlane;fontStyle=0;childLayout=stackLayout;horizontal=1;startSize=26;horizontalStack=0;resizeParent=1;resizeParentMax=0;resizeLast=0;collapsible=1;marginBottom=0;fontSize=11;align=center;swimlaneFillColor=none;fontFamily=Arial;" parent="1" vertex="1">
                    <mxGeometry x="45" y="158" width="120" height="364" as="geometry"/>
                </mxCell>
                <mxCell id="92" value="FastQC" style="text;strokeColor=none;fillColor=none;align=center;verticalAlign=top;spacingLeft=4;spacingRight=4;overflow=hidden;rotatable=0;points=[[0,0.5],[1,0.5]];portConstraint=eastwest;fontSize=11;fontFamily=Arial;" parent="91" vertex="1">
                    <mxGeometry y="26" width="120" height="26" as="geometry"/>
                </mxCell>
                <mxCell id="93" value="Qualimap" style="text;strokeColor=none;fillColor=none;align=center;verticalAlign=top;spacingLeft=4;spacingRight=4;overflow=hidden;rotatable=0;points=[[0,0.5],[1,0.5]];portConstraint=eastwest;fontSize=11;fontFamily=Arial;" parent="91" vertex="1">
                    <mxGeometry y="52" width="120" height="26" as="geometry"/>
                </mxCell>
                <mxCell id="94" value="MultiQC" style="text;strokeColor=none;fillColor=none;align=center;verticalAlign=top;spacingLeft=4;spacingRight=4;overflow=hidden;rotatable=0;points=[[0,0.5],[1,0.5]];portConstraint=eastwest;fontSize=11;fontFamily=Arial;" parent="91" vertex="1">
                    <mxGeometry y="78" width="120" height="26" as="geometry"/>
                </mxCell>
                <mxCell id="97" value="Kraken" style="text;strokeColor=none;fillColor=none;align=center;verticalAlign=top;spacingLeft=4;spacingRight=4;overflow=hidden;rotatable=0;points=[[0,0.5],[1,0.5]];portConstraint=eastwest;fontSize=11;fontFamily=Arial;" parent="91" vertex="1">
                    <mxGeometry y="104" width="120" height="26" as="geometry"/>
                </mxCell>
                <mxCell id="98" value="Trimmomatic" style="text;strokeColor=none;fillColor=none;align=center;verticalAlign=top;spacingLeft=4;spacingRight=4;overflow=hidden;rotatable=0;points=[[0,0.5],[1,0.5]];portConstraint=eastwest;fontSize=11;fontFamily=Arial;" parent="91" vertex="1">
                    <mxGeometry y="130" width="120" height="26" as="geometry"/>
                </mxCell>
                <mxCell id="99" value="Flash" style="text;strokeColor=none;fillColor=none;align=center;verticalAlign=top;spacingLeft=4;spacingRight=4;overflow=hidden;rotatable=0;points=[[0,0.5],[1,0.5]];portConstraint=eastwest;fontSize=11;fontFamily=Arial;" parent="91" vertex="1">
                    <mxGeometry y="156" width="120" height="26" as="geometry"/>
                </mxCell>
                <mxCell id="102" value="BWA" style="text;strokeColor=none;fillColor=none;align=center;verticalAlign=top;spacingLeft=4;spacingRight=4;overflow=hidden;rotatable=0;points=[[0,0.5],[1,0.5]];portConstraint=eastwest;fontSize=11;fontFamily=Arial;" parent="91" vertex="1">
                    <mxGeometry y="182" width="120" height="26" as="geometry"/>
                </mxCell>
                <mxCell id="112" value="GATK" style="text;strokeColor=none;fillColor=none;align=center;verticalAlign=top;spacingLeft=4;spacingRight=4;overflow=hidden;rotatable=0;points=[[0,0.5],[1,0.5]];portConstraint=eastwest;fontSize=11;fontFamily=Arial;" parent="91" vertex="1">
                    <mxGeometry y="208" width="120" height="26" as="geometry"/>
                </mxCell>
                <mxCell id="113" value="Picard" style="text;strokeColor=none;fillColor=none;align=center;verticalAlign=top;spacingLeft=4;spacingRight=4;overflow=hidden;rotatable=0;points=[[0,0.5],[1,0.5]];portConstraint=eastwest;fontSize=11;fontFamily=Arial;" parent="91" vertex="1">
                    <mxGeometry y="234" width="120" height="26" as="geometry"/>
                </mxCell>
                <mxCell id="114" value="PANPASCO" style="text;strokeColor=none;fillColor=none;align=center;verticalAlign=top;spacingLeft=4;spacingRight=4;overflow=hidden;rotatable=0;points=[[0,0.5],[1,0.5]];portConstraint=eastwest;fontSize=11;fontFamily=Arial;" parent="91" vertex="1">
                    <mxGeometry y="260" width="120" height="26" as="geometry"/>
                </mxCell>
                <mxCell id="128" value="TransCluster" style="text;strokeColor=none;fillColor=none;align=center;verticalAlign=top;spacingLeft=4;spacingRight=4;overflow=hidden;rotatable=0;points=[[0,0.5],[1,0.5]];portConstraint=eastwest;fontSize=11;fontFamily=Arial;" parent="91" vertex="1">
                    <mxGeometry y="286" width="120" height="26" as="geometry"/>
                </mxCell>
                <mxCell id="131" value="Adegenet" style="text;strokeColor=none;fillColor=none;align=center;verticalAlign=top;spacingLeft=4;spacingRight=4;overflow=hidden;rotatable=0;points=[[0,0.5],[1,0.5]];portConstraint=eastwest;fontSize=11;fontFamily=Arial;" parent="91" vertex="1">
                    <mxGeometry y="312" width="120" height="26" as="geometry"/>
                </mxCell>
                <mxCell id="132" value="Rmarkdown" style="text;strokeColor=none;fillColor=none;align=center;verticalAlign=top;spacingLeft=4;spacingRight=4;overflow=hidden;rotatable=0;points=[[0,0.5],[1,0.5]];portConstraint=eastwest;fontSize=11;fontFamily=Arial;" parent="91" vertex="1">
                    <mxGeometry y="338" width="120" height="26" as="geometry"/>
                </mxCell>
                <mxCell id="116" value="&lt;font style=&quot;font-size: 11px&quot;&gt;summary report&lt;br style=&quot;font-size: 11px&quot;&gt;&lt;/font&gt;" style="rounded=1;whiteSpace=wrap;html=1;fontSize=11;fillColor=#b0e3e6;strokeColor=#0e8088;comic=0;fontFamily=Arial;" parent="1" vertex="1">
                    <mxGeometry x="210" y="560" width="110" height="30" as="geometry"/>
                </mxCell>
                <mxCell id="118" value="" style="endArrow=none;dashed=1;html=1;fontSize=11;fontFamily=Arial;" parent="1" edge="1">
                    <mxGeometry width="50" height="50" relative="1" as="geometry">
                        <mxPoint x="10" y="610" as="sourcePoint"/>
                        <mxPoint x="510" y="610" as="targetPoint"/>
                    </mxGeometry>
                </mxCell>
                <mxCell id="119" value="&lt;b&gt;&lt;font style=&quot;font-size: 12px&quot;&gt;Output&lt;/font&gt;&lt;/b&gt;" style="text;html=1;strokeColor=none;fillColor=none;align=center;verticalAlign=middle;whiteSpace=wrap;rounded=0;flipV=0;rotation=0;fontSize=11;fontFamily=Arial;" parent="1" vertex="1">
                    <mxGeometry x="60" y="565" width="90" height="20" as="geometry"/>
                </mxCell>
                <mxCell id="120" value="summary report" style="text;html=1;strokeColor=none;fillColor=none;align=left;verticalAlign=middle;whiteSpace=wrap;rounded=0;fontSize=11;fontFamily=Arial;" parent="1" vertex="1">
                    <mxGeometry x="387" y="495" width="140" height="20" as="geometry"/>
                </mxCell>
                <mxCell id="121" value="&lt;font style=&quot;font-size: 11px;&quot;&gt;6&lt;br style=&quot;font-size: 11px;&quot;&gt;&lt;/font&gt;" style="rounded=1;whiteSpace=wrap;html=1;fontSize=11;fillColor=#b0e3e6;strokeColor=#0e8088;comic=0;fontFamily=Arial;" parent="1" vertex="1">
                    <mxGeometry x="360" y="495" width="20" height="20" as="geometry"/>
                </mxCell>
                <mxCell id="122" value="&lt;font style=&quot;font-size: 12px&quot;&gt;Module&lt;/font&gt;" style="text;html=1;strokeColor=none;fillColor=none;align=center;verticalAlign=middle;whiteSpace=wrap;rounded=0;fontSize=11;fontColor=#000000;fontStyle=1;fontFamily=Arial;" parent="1" vertex="1">
                    <mxGeometry x="387" y="320" width="60" height="20" as="geometry"/>
                </mxCell>
                <mxCell id="126" style="edgeStyle=none;html=1;exitX=0;exitY=0.5;exitDx=0;exitDy=0;entryX=1;entryY=0.5;entryDx=0;entryDy=0;" parent="1" source="123" target="25" edge="1">
                    <mxGeometry relative="1" as="geometry"/>
                </mxCell>
                <mxCell id="123" value="&lt;font style=&quot;font-size: 11px&quot;&gt;alignment QC&lt;br style=&quot;font-size: 11px&quot;&gt;&lt;/font&gt;" style="rounded=1;whiteSpace=wrap;html=1;fontSize=11;fillColor=#dae8fc;strokeColor=#6c8ebf;comic=0;fontFamily=Arial;" parent="1" vertex="1">
                    <mxGeometry x="370" y="260" width="110" height="30" as="geometry"/>
                </mxCell>
            </root>
        </mxGraphModel>
    </diagram>
</mxfile>